<svg version="1.1" xmlns="http://www.w3.org/2000/svg" xmlns:xlink="http://www.w3.org/1999/xlink" width="800" height="800"><defs/><g transform="scale(2,2)"><g id="background-8b1de2fc"><rect fill="white" stroke="none" x="0" y="0" width="400" height="400" class="dcg-svg-background"/></g><g id="graphpaper-8b1de2fc"><g id="axis-8b1de2fc"><g><g><path fill="none" stroke="rgb(0,0,0)" class="dcg-svg-tickmark" paint-order="fill stroke markers" d="" stroke-opacity="0.9" stroke-miterlimit="2" stroke-width="1.5" stroke-dasharray=""/></g></g></g></g><g id="expressions-8b1de2fc"><g id="sketch-8b1de2fc"><title>Expression 1</title><g><path fill="none" stroke="#c74440" class="dcg-svg-curve" paint-order="fill stroke markers" d=" M 305 200 L 305 200 L 304.2906957524425 199.34471360952676 L 303.1178204237691 198.7041150382416 L 302.88574698018397 198.3837415315223 L 303.02649501477214 198.05776628642914 L 304.0165585903784 197.38522818197444 L 304.5433302649035 196.71459349003723 L 303.65302347710775 196.0905208189376 L 302.3009817060197 195.49766427957334 L 301.9796755062052 195.19076058529345 L 302.03123438380516 194.86702702774136 L 303.177351652981 193.83399225834867 L 303.19440882169647 193.50755810654587 L 302.13298361837565 192.92981349973167 L 300.61369393767586 192.3994980592266 L 300.20934732087534 192.11335332606612 L 300.1779248926784 191.79907938285265 L 301.07763799529744 190.76563822764726 L 301.01507100617994 190.45126442136464 L 299.80014278284847 189.9330587123054 L 297.6555651083528 189.21872524010323 L 297.5510097462316 188.91995875635135 L 298.23479336448145 187.90347516244566 L 298.10373145983334 187.60661658143536 L 296.75950971755776 187.1582720811504 L 294.9704158905794 186.78797490492906 L 294.2678249457067 186.28141586611892 L 294.7745923630621 185.29424068113036 L 294.58881204363024 185.01860394350686 L 293.14454038638195 184.64682294224508 L 291.2638814520292 184.36718918844028 L 290.4708277104626 183.91727136705396 L 290.84527932107284 182.96594433444778 L 290.62029354919736 182.71325447744925 L 289.10839145323905 182.42070282201217 L 287.1693976981273 182.23349599169197 L 286.3183382020451 181.8413396292436 L 286.60800316957983 180.92629977487888 L 286.36006335241757 180.69623877605912 L 284.81411644467136 180.48147571353678 L 282.8507753295153 180.38436765398706 L 281.9745256461522 180.04707705598054 L 282.226728119682 179.1628960591319 L 281.9718166246222 178.9532147107313 L 280.424571491213 178.81096699343948 L 278.4696415437869 178.7978777770761 L 277.59941623152986 178.50894501311348 L 277.8583982634085 177.64504827152726 L 277.6112881077524 177.45183641913954 L 276.09280341036356 177.3735819510916 L 274.17601311047 177.43531871360844 L 273.3396790591232 177.18531452452834 L 273.64409315164494 176.32710867323306 L 273.41754383115756 176.14519396021421 L 271.9536322933351 176.1199912861653 L 270.1001936461614 176.2451172403816 L 269.3208606870276 176.0225955715644 L 269.70180772594716 175.1528837634679 L 269.5059526857656 174.9763172610989 L 268.1170200598879 174.9917948309126 L 266.34655615679566 175.16763891755556 L 265.64159711259646 174.9601624379465 L 266.12133395230586 174.06070344771305 L 265.96329726337575 173.8832830607795 L 264.66364744678805 173.92668865391735 L 262.98959507261475 174.14039469654455 L 262.3701480246712 173.9355790681859 L 262.961528066532 172.98863571642227 L 262.84528715013755 172.80441576699988 L 261.64292067496274 172.86362305466758 L 259.6315734540752 173.0753121788669 L 259.54338922426325 172.88961143113605 L 260.2500346702026 171.87933894008117 L 260.1765243429253 171.6830770767198 L 259.0734144176709 171.74745333013436 L 257.2142510664321 171.97102761930807 L 257.1681846734478 171.7705488826699 L 257.7453578020587 171.03283810084972 L 257.9527593638069 170.47159423571384 L 256.94554943592465 170.532649901107 L 255.23200330601017 170.75615958766468 L 255.22485931431487 170.53743973227446 L 255.8678188573968 169.74195817006216 L 256.14508716400996 169.13397713381696 L 255.22612021080175 169.1857426506529 L 253.64561470546374 169.40108160086987 L 253.67232558371185 169.16196898496702 L 254.36984888815715 168.30515665557618 L 254.70558087470155 167.64720965835107 L 253.86414625914446 167.6863149513156 L 252.40001662872038 167.88922851137463 L 252.45429509971976 167.62885587603378 L 253.57376181646845 166.00105690923527 L 252.79743257304264 166.02652133755078 L 251.43093480858232 166.21619039743717 L 251.505942318517 165.9348099078013 L 252.68326378901412 164.19649090080839 L 251.9591965279901 164.20926275804518 L 250.89639973005572 164.467761042098 L 250.67141428914124 164.38753357219468 L 250.76038351922512 164.08623999128648 L 251.9680706456217 162.24298657756884 L 251.28415159591123 162.24529825265347 L 250.2672142403001 162.50467091838019 L 250.05763333347582 162.41566576726916 L 250.15439084558992 162.09604581386438 L 251.3677847652537 160.15506182958626 L 250.7135273918962 160.1496866389626 L 249.73270458666977 160.41246869403113 L 249.5335221464122 160.31616570385626 L 249.63287022808242 159.97991962421648 L 250.83151109975915 157.94851689578076 L 250.19864082459975 157.93802426239654 L 249.2464676128114 158.2063958988408 L 249.05384867317844 158.10405530059063 L 249.1517818388809 157.75263971554259 L 250.32010336660682 155.63686130236195 L 249.70280004466923 155.6229672038839 L 248.77426482283806 155.89813446521114 L 248.5856069068866 155.7904992816085 L 248.67935663338358 155.42483809575137 L 249.40376919899353 154.18750103694137 L 249.80669897313948 153.22839645578614 L 249.20150436529616 153.21149576376723 L 248.29389301600293 153.49326832836306 L 248.10772543853346 153.38037076221224 L 248.1956447398405 153.0006735214453 L 248.8920420258429 151.7185252219504 L 249.27564927611036 150.72435072388967 L 248.68108117369258 150.70329815837096 L 247.79353988668035 150.98992598779313 L 247.60928725224375 150.87102671338408 L 247.69060285885053 150.4767419780083 L 248.35712860067136 149.14897339042002 L 248.7201140464436 148.11834809224894 L 248.13605759344003 148.09052696703193 L 247.2689497808376 148.37882879686026 L 247.08659909267493 148.25250326459465 L 247.16107173209343 147.84241949639335 L 247.79684201077157 146.46697330705854 L 248.13871786227907 145.3973427066203 L 247.56568524239646 145.35902819184042 L 246.71983666523755 145.64481179756163 L 246.53955607890524 145.50918095794364 L 246.607097470493 145.08167061753562 L 247.21143121493088 143.6557689739031 L 247.53174952664426 142.54398477060687 L 246.9701096614461 142.49097434403456 L 246.14604419989294 142.7697145581308 L 245.96780479351094 142.62280051445063 L 246.028102759237 142.17618624617623 L 246.5997836722717 140.69709353827108 L 246.89741616210705 139.54021539302022 L 246.71568489728898 139.3822299332717 L 245.54396137584237 139.73637609724724 L 245.36721114396914 139.576547857818 L 245.41941153077795 139.1095545496853 L 245.95607709119747 137.57549880621178 L 246.22863942444022 136.3717364882196 L 246.04760668660248 136.20037087402676 L 244.90365676071755 136.53332767060178 L 244.72708870168174 136.35979001497782 L 244.76957499534822 135.8720347623574 L 245.26731115718522 134.283188948879 L 245.51080586293696 133.0328827857308 L 245.32865575561664 132.84807879450307 L 244.20710066222543 133.15967500504576 L 244.0285451646724 132.97294583648113 L 244.0588446421511 132.46541070526845 L 244.5120397333456 130.82482250757886 L 244.72076548917678 129.5313494842698 L 244.5348218133887 129.33461902626343 L 243.4277129311845 129.62960898525202 L 243.24416994446364 129.43192831764298 L 243.25900026734627 128.90735915051522 L 243.66048109542749 127.22171625038898 L 243.82722492255772 125.89220984663551 L 243.6340679115268 125.6869768877773 L 242.53131882138393 125.97598756635374 L 242.33912907936326 125.77160486754376 L 242.3345829592579 125.23478352937106 L 242.67602348643408 123.51491141061872 L 242.7925197314857 122.1606955742857 L 242.58823363120655 121.95248852162105 L 241.4784326778202 122.25249304894399 L 241.2735712342027 122.04778884319298 L 241.24542090311743 121.50563601091852 L 241.51798246536185 119.76664630424537 L 241.57559170935545 118.40330693862619 L 241.35611765126464 118.19976530090716 L 240.2276361879908 118.53398335614412 L 240.0060973738013 118.337395026671 L 239.95018671650186 117.79887509165842 L 240.14532188016975 116.05991261355786 L 240.13585728832567 114.70696163990806 L 239.89741359045036 114.51763715817195 L 238.7396903259182 114.91481379382414 L 238.497922414128 114.73655317684023 L 238.4106041937779 114.21237075511603 L 238.52093673474207 112.49594401461191 L 238.43754747583796 111.17606859370643 L 238.17707123611098 111.01202009289938 L 236.9819310630167 111.50509268275556 L 236.71727253108065 111.35666268211601 L 236.5958422325964 110.85875996473484 L 236.61602539487217 109.18967960728983 L 236.4540384463599 107.92760896846742 L 236.16959890230675 107.80081012915814 L 234.64352549884512 108.3185700336995 L 234.48660252910327 107.85945388931142 L 234.41405772576428 106.26344255421962 L 234.1716814875568 105.0845032903628 L 233.8628174553437 105.00710147357375 L 232.27061713675272 105.74524036637487 L 232.07842853636694 105.3371858316847 L 231.91387699321407 103.83925744155628 L 231.5926824431198 102.76772134960459 L 230.83330827295907 103.03602003037592 L 229.9444707077813 103.74104110858477 L 229.60930306051165 103.75345621072412 L 229.38383404872081 103.40764702277178 L 229.1315535085262 102.03038017899104 L 228.73666989356428 101.0877334480612 L 227.94658876017763 101.50136996547863 L 227.0416162758441 102.35874235848591 L 226.68797473748165 102.44519468725491 L 226.43296339860603 102.17087039588763 L 226.10072890863103 100.93271658810337 L 225.64071902046985 100.13599279976107 L 224.8295130596484 100.70961512084354 L 223.9187103473263 101.73244590324659 L 223.55187119076214 101.89939634391934 L 223.27264010036143 101.70307832713704 L 222.871339369558 100.61684930347866 L 222.35775145437182 99.97716975371 L 221.53782053507715 100.71924725636892 L 220.26068815041893 102.16483749189089 L 219.96382216175593 102.04970247500489 L 219.50676880780566 101.1213717297919 L 218.95339486781563 100.64282461758232 L 218.1391621427141 101.55461021321827 L 216.88474875157945 103.2547518835989 L 216.57764385405724 103.22021153535026 L 215.81620465030318 102.13135614178555 L 215.50154307783333 102.12710891252935 L 214.70844195343767 103.20206507592093 L 213.50004757790234 105.14372160817511 L 213.1903691076926 105.18525124697476 L 212.39324175993556 104.31583175577215 L 212.07899204614125 104.38493250962894 L 211.32232283629028 105.60868639922829 L 210.53079819963617 107.28464134579163 L 209.87769612786587 107.87642124312376 L 209.0663970117588 107.20019368561589 L 208.75962573291991 107.33283918990651 L 208.05338468390573 108.68368939785965 L 207.32819810514874 110.48277216081416 L 206.7089246486473 111.18880088316342 L 205.9020085644831 110.66946417571084 L 205.60867820561603 110.85261274602631 L 204.96446596727992 112.30256476710451 L 204.3166523581234 114.19526833953095 L 203.74151907783437 114.98610976571402 L 202.9531023849718 114.57932145608417 L 202.67759928085326 114.79740936579586 L 202.10370976697436 116.31367267876126 L 201.54083135460994 118.2660393725402 L 201.01657024563826 119.1081684475807 L 200.25521077260098 118.76415527678145 L 200 119.00000000000003 L 199.50077450727443 120.5468406934159 L 199.0263361439371 122.52237071539686 L 198.5555784162391 123.38013079539444 L 197.82361681734974 123.04670378134739 L 197.58905631019647 123.28252785495567 L 197.16456331666927 124.82334052863177 L 196.77776205683568 126.7850899299758 L 196.3588584639167 127.62280894511547 L 195.65228273522808 127.24855823892102 L 195.43661404186724 127.46705724859372 L 195.0826846889593 128.96650122456532 L 194.7785170957862 130.87921206794454 L 194.4057166369237 131.6633187007291 L 193.7145624477203 131.20074811737544 L 193.5140789753206 131.38612254439457 L 193.22269485547122 132.8121619290976 L 192.9924119150215 134.6442647672597 L 192.65638208645183 135.3452458430348 L 191.96563127512428 134.7536121240431 L 191.77500820872396 134.8924858774257 L 191.53500503251058 136.2181812298322 L 191.366871971798 137.94352089288395 L 191.0555117553035 138.53757473429306 L 190.34640475241042 137.78522179032785 L 190.15915974131593 137.86737991105838 L 189.95718100968202 139.07230044192676 L 189.83747095200275 140.6714596965888 L 189.53694056528917 141.14172606861598 L 189.03424864149315 140.48635442476876 L 188.59762190492822 140.2266407643702 L 188.41923376990812 141.2977981934545 L 188.22029548408997 143.11795842987016 L 188.0292345856508 143.09621103783564 L 187.48565534775994 142.31386805623322 L 187.0185463481319 141.92431481221294 L 186.84941066470748 142.85656032033674 L 186.7831097551183 144.17566638089374 L 186.6675037015291 144.4661562332478 L 186.46153423902 144.37860999880954 L 185.35295729976335 142.95353509740073 L 185.17995583147908 143.74940558329814 L 185.12037281507628 144.93008769453587 L 184.99603284295273 145.15473319641305 L 184.76915447496933 145.0048067823489 L 183.54011071520912 143.34468947227407 L 183.35231992167516 144.0137345336588 L 183.28895376608097 145.06641734468414 L 183.15093167380766 145.23124745113975 L 182.8984410305194 145.02563502000473 L 181.53192935437832 143.16112301058058 L 181.3213614732203 143.7187856838011 L 181.24674863635357 144.65952261732514 L 181.0916650614451 144.77327293887302 L 180.81046298285358 144.5213002022606 L 179.2961384078196 142.49281213905275 L 179.05818897733755 142.95897079074012 L 178.96828774279462 143.80793377989625 L 178.79450018172253 143.8812730951815 L 178.48324346728816 143.59411238232212 L 176.81786091144204 141.4486003176359 L 176.55143297727224 141.8459032317022 L 176.4456824338792 142.62569330462787 L 175.91238030365597 142.36018479162897 L 174.09958919300354 140.14768204548866 L 173.80689714899893 140.49981821345824 L 173.68796032835667 141.2337412699885 L 173.11007114114784 140.94081329050917 L 171.1596120547839 138.71105586059682 L 170.84570007033386 139.04110443823473 L 170.71893221981227 139.7515529244168 L 170.10271708838633 139.4542464314447 L 168.02913075154888 137.25363614285828 L 167.79433855812698 137.2807188900664 L 167.57387866495708 138.28968852553027 L 166.92741849224868 138.0084879138111 L 164.7484245270078 135.87762225860843 L 164.50633969809684 135.9149958356424 L 164.29545789734277 136.94380261501817 L 163.62778240019367 136.69565011246127 L 161.36251557099757 134.66758177872566 L 161.0322145733528 135.04403813883994 L 160.9293075763347 135.79050169790906 L 160.24952253868366 135.58821192337973 L 157.9168247025793 133.68752658440383 L 157.59820806719614 134.10431199019877 L 157.51983378894488 134.8852517233082 L 157.28293992096758 134.96949106733223 L 156.8363431301069 134.73734287171624 L 155.53040746125322 133.6723316518649 L 154.45329865089184 132.98006418179023 L 154.2152433437628 133.08295329649505 L 154.10664953567812 134.26233812760603 L 153.87625887884371 134.37255463186852 L 153.42655647826618 134.1732568686599 L 152.0963849270389 133.18753303265237 L 151.00742855305958 132.56751042303898 L 150.77767980080907 132.69694685029577 L 150.72204482620495 133.93669049675532 L 150.5008155424795 134.07327610122172 L 150.0507951968727 133.90737209579055 L 148.7021263520524 133.0021561649803 L 147.6064734703249 132.45467260211802 L 147.38716555017024 132.61016876162785 L 147.38974967774686 133.90721898556822 L 147.17946509246954 134.0691951260933 L 146.73105235039392 133.93589565404142 L 145.36793389501483 133.10986680857445 L 144.26906318735652 132.6328698997153 L 144.0614953214662 132.81284630872602 L 144.1251021578245 134.16118551791703 L 143.9267644427363 134.34667647725155 L 143.48112973964726 134.24433711095355 L 142.10617200833912 133.4945979010266 L 141.00619567984748 133.0846640132453 L 140.81100432209888 133.28693979817916 L 140.93657154481895 134.67906026457527 L 140.7506219581307 134.88578372878504 L 140.30841191873142 134.81239371686632 L 138.9232826990372 134.13544091096043 L 137.82348288599604 133.78873426548245 L 137.64092489770294 134.0110012534113 L 137.82842855401557 135.4392985245985 L 137.65506539065808 135.6650182400321 L 137.21672822542598 135.61864629202933 L 135.82282444234698 135.01124025541995 L 134.72435072388964 134.72435072388967 L 134.55466093099432 134.9645796747217 L 134.8042170196629 136.4225148173004 L 134.64377039194966 136.66540737620215 L 134.20993351860972 136.64455736680205 L 132.80914327085907 136.1043991385568 L 131.7137813308708 135.8749723837663 L 131.55755831961932 136.1317099658471 L 131.87057914711016 137.61462404214248 L 131.72389390026626 137.87352358384732 L 131.2957445838067 137.87736534751443 L 129.89119979532097 137.40351603565077 L 128.80211008647234 137.23061651520646 L 128.6606792684583 137.5031455628191 L 128.9097061083735 139.28315306324043 L 128.48932374826404 139.31160878849073 L 127.08604100475654 138.90461726032206 L 126.00836577008133 138.78879676493153 L 125.88406932713629 139.07714868879188 L 126.2255177869561 140.89549459510238 L 125.8161098184142 140.94917822447877 L 124.42142527401587 140.61091702541825 L 123.36267276039186 140.55399547863158 L 123.25904212051435 140.8588207209242 L 123.70745729251551 142.7179386312412 L 123.31345928674065 142.79796237704682 L 121.93718223735395 142.53120485625536 L 120.90731755688023 142.53580255105052 L 120.82909505617312 142.85812093550913 L 121.40375893598757 144.7616366049673 L 121.03077262001909 144.8693134982319 L 119.68500977126384 144.67711389035105 L 118.69621075653511 144.7460018871465 L 118.64920209983006 145.08686799626986 L 119.37337171239564 147.03820435885802 L 119.02793105011689 147.174687171826 L 117.72656707082024 147.05964699629982 L 116.79263788514204 147.19500230416725 L 117.04056935010514 148.08062834954967 L 117.67211600835147 149.19295373146542 L 117.68287066077384 149.55599826350544 L 117.37204425583437 149.72190205741893 L 116.1299006483734 149.68541852660974 L 115.2653725000627 149.88808099008878 L 115.60816810180137 150.80387482656815 L 116.34396326252678 151.9344945938427 L 116.40183542422953 152.3164487868098 L 116.13269153463486 152.5115060799502 L 114.96442156304286 152.553100094573 L 114.18340499690407 152.82192766170516 L 114.63376186034786 153.76559784645957 L 115.5970337519966 155.31092975916474 L 115.37601032822536 155.5337237588305 L 114.29481911374313 155.65053642504597 L 113.6097024452913 155.9819448064796 L 114.17830555717839 156.9487312572165 L 115.32589409625481 158.51858354345734 L 115.15812880415181 158.7663964522269 L 113.74240932968985 159.07877682804298 L 113.59454184343014 159.3406776897384 L 114.2887339981526 160.32319824145614 L 115.6298557456748 161.90541916152588 L 115.51853856286904 162.17422015812303 L 114.25969380651438 162.57661748271607 L 114.1690377893326 162.8576259501657 L 114.99160587016951 163.8460166122612 L 116.52823555736975 165.4248630926503 L 116.47404834197742 165.70944550473826 L 115.69923028578002 166.0087189284827 L 115.33950654947901 166.4805394043027 L 116.28770965812649 167.4628896058193 L 118.0132407509282 169.01978529723075 L 118.01394382600334 169.3140462961358 L 117.06387035629056 169.8464986260666 L 117.08326811518104 170.14813965916392 L 118.14821770213824 171.1111916123578 L 119.63991283541219 172.20423562614195 L 120.09690209517123 172.923202859605 L 119.28034398468526 173.49194618352675 L 119.34638819134267 173.7940529510443 L 120.5128638968714 174.724105054576 L 122.10635518771265 175.76865579820978 L 122.650077477926 176.46980100375174 L 121.94071035888189 177.05550674534376 L 122.04371102808761 177.35160440250536 L 123.29046063103544 178.23553535743832 L 124.96296537236455 179.21859318601176 L 125.57059963421042 179.88953163939416 L 124.93376757448033 180.47468944186315 L 125.06134452178392 180.75902356856224 L 126.36187531257985 181.5853389949127 L 128.08558154820827 182.4957468357132 L 128.72952003754597 183.12610200076978 L 128.12387424282144 183.69652734218573 L 128.2615479183405 183.96455611770102 L 129.58537366720304 184.72435448876485 L 131.32877067390973 185.55373566557776 L 131.9780280954538 186.1360446623678 L 131.35778032771464 186.68216841121674 L 131.48975893114977 186.93097255966336 L 132.80402537486742 187.61873276439968 L 134.5335927431688 188.36223245513884 L 135.15555268396818 188.89263790950523 L 134.4731918758198 189.41044479093193 L 134.58330086721793 189.63901271997574 L 135.85467713399711 190.25312101235306 L 137.53681376363676 190.9098732664367 L 138.09918803043797 191.3885279591763 L 137.30846370148598 191.88004264544435 L 137.38114984688792 192.08939958114735 L 138.57784684389387 192.6323575676161 L 140.18089693505792 193.20562513046428 L 140.6537514204598 193.63676251283567 L 139.99306652020468 193.94703996055293 L 139.73403274048096 194.30318882103603 L 140.8277948046403 194.78147411025532 L 142.69640859104106 195.49010954893436 L 142.6817068887838 195.6700943879123 L 141.8984241640464 195.97790094280796 L 141.51407881631644 196.32037772970534 L 142.4819933860192 196.7439619461781 L 144.15507526221393 197.36642020258301 L 144.07218140170949 197.53857869942797 L 143.14911299592168 197.85575613994067 L 142.623267485655 198.196863539306 L 143.44924949805738 198.57842529396706 L 144.90523904808157 199.13450233321004 L 144.74835958674663 199.30565086005723 L 143.67583222617253 199.64610015945686 L 143 200 L 143.67583222617242 200.3538998405431 L 144.90523904808157 200.86549766678996 L 144.67266518270674 201.04301922480002 L 142.623267485655 201.803136460694 L 143.1491129959216 202.14424386005933 L 144.07218140170949 202.46142130057203 L 144.15507526221393 202.63357979741696 L 143.8493116684516 202.82482092194803 L 141.51407881631644 203.67962227029463 L 141.8984241640464 204.022099057192 L 142.68170688878374 204.3299056120877 L 142.69640859104106 204.50989045106562 L 142.3240157542216 204.7215608510777 L 139.73403274048096 205.69681117896394 L 139.9930665202047 206.05296003944707 L 140.65375142045977 206.3632374871643 L 140.18089693505794 206.7943748695357 L 137.38114984688792 207.91060041885262 L 137.308463701486 208.11995735455565 L 138.099188030438 208.61147204082368 L 137.53681376363684 209.09012673356327 L 134.58330086721793 210.36098728002426 L 134.47319187581985 210.58955520906804 L 135.1555526839682 211.10736209049475 L 134.53359274316887 211.63776754486113 L 131.48975893114977 213.06902744033664 L 131.35778032771458 213.31783158878324 L 131.9780280954538 213.8639553376322 L 131.32877067390982 214.4462643344222 L 128.26154791834054 216.035443882299 L 128.1238742428214 216.30347265781435 L 128.72952003754597 216.87389799923022 L 128.08558154820827 217.50425316428684 L 125.06134452178388 219.2409764314378 L 124.93376757448036 219.52531055813682 L 125.5705996342104 220.1104683606058 L 124.96296537236458 220.7814068139882 L 122.04371102808761 222.64839559749467 L 121.94071035888196 222.9444932546562 L 122.650077477926 223.5301989962483 L 122.10635518771261 224.23134420179025 L 120.51286389687132 225.27589494542406 L 119.34638819134264 226.20594704895572 L 119.28034398468529 226.5080538164733 L 120.09690209517123 227.07679714039497 L 119.6399128354123 227.795764373858 L 118.14821770213813 228.88880838764226 L 117.08326811518099 229.8518603408361 L 117.06387035629056 230.15350137393347 L 118.0139438260033 230.68595370386424 L 118.0132407509282 230.98021470276933 L 117.66074230510598 231.40937649831443 L 116.28770965812647 232.53711039418073 L 115.339506549479 233.51946059569732 L 115.69923028578005 233.99128107151728 L 116.47404834197741 234.29055449526174 L 116.52823555736975 234.5751369073497 L 116.23542549905572 235.00512982754657 L 114.9916058701696 236.15398338773872 L 114.16903778933262 237.14237404983425 L 114.25969380651432 237.4233825172838 L 115.6298557456748 238.094580838474 L 115.39901630859654 238.51923061590628 L 114.28873399815276 239.67680175854372 L 113.59454184343015 240.6593223102615 L 113.74240932968985 240.92122317195697 L 115.32589409625486 241.4814164565426 L 115.15641446103659 241.89546798227434 L 114.17830555717855 243.05126874278335 L 113.60970244529129 244.01805519352033 L 114.29481911374297 244.34946357495406 L 115.3760103282253 244.46627624116945 L 115.59703375199659 244.68907024083524 L 115.48584027706997 245.08845391784584 L 114.63376186034795 246.2344021535403 L 114.18340499690404 247.17807233829478 L 114.96442156304276 247.446899905427 L 116.13269153463479 247.48849392004982 L 116.40183542422949 247.6835512131902 L 116.34396326252681 248.06550540615726 L 115.60816810180143 249.19612517343177 L 115.2653725000627 250.11191900991113 L 116.12990064837328 250.31458147339023 L 117.37204425583423 250.2780979425811 L 117.68287066077377 250.44400173649447 L 117.67211600835152 250.80704626853446 L 117.0405693501053 251.91937165045016 L 116.79263788514203 252.8049976958327 L 117.72656707082014 252.94035300370024 L 119.02793105011682 252.82531282817402 L 119.37337171239561 252.96179564114195 L 119.40296019527901 253.3055674399197 L 118.64920209983006 254.9131320037301 L 118.6962107565351 255.25399811285348 L 119.68500977126371 255.322886109649 L 121.03077262001906 255.13068650176814 L 121.40375893598754 255.23836339503268 L 121.46696805848674 255.56334027373782 L 120.82909505617309 257.14187906449087 L 120.90731755688019 257.46419744894945 L 121.9371822373539 257.4687951437446 L 123.31345928674062 257.2020376229532 L 123.70745729251551 257.2820613687588 L 123.79813903862768 257.58921199283395 L 123.25904212051438 259.1411792790758 L 123.36267276039183 259.4460045213684 L 124.42142527401582 259.38908297458175 L 125.81610981841413 259.05082177552123 L 126.22551778695606 259.1045054048976 L 126.33848044025457 259.39491147371547 L 125.88406932713633 260.92285131120803 L 126.00836577008131 261.21120323506847 L 127.08604100475652 261.0953827396779 L 128.48932374826398 260.68839121150927 L 128.90970610837348 260.71684693675957 L 129.04093074739603 260.9913466411328 L 128.6606792684583 262.49685443718084 L 128.80211008647234 262.7693834847935 L 129.89119979532086 262.5964839643493 L 131.2957445838066 262.1226346524856 L 131.72389390026626 262.1264764161527 L 131.8705791471102 262.3853759578575 L 131.5575583196193 263.8682900341529 L 131.7137813308708 264.1250276162337 L 132.80914327085898 263.89560086144326 L 134.2099335186097 263.355442633198 L 134.64377039194963 263.33459262379785 L 134.80421701966293 263.57748518269955 L 134.5546609309943 265.0354203252783 L 134.72435072388964 265.2756492761103 L 135.82282444234687 264.9887597445801 L 137.21672822542592 264.38135370797073 L 137.65506539065808 264.3349817599679 L 137.8284285540156 264.56070147540146 L 137.64092489770297 265.98899874658866 L 137.82348288599601 266.21126573451755 L 138.92328269903712 265.86455908903963 L 140.7506219581307 265.11421627121496 L 140.93657154481895 265.3209397354247 L 140.81100432209888 266.7130602018208 L 141.00619567984742 266.9153359867547 L 142.10617200833906 266.5054020989735 L 143.92676444273616 265.6533235227485 L 144.12510215782447 265.83881448208297 L 144.06149532146617 267.1871536912741 L 144.26906318735652 267.3671301002847 L 145.36793389501477 266.8901331914256 L 147.1794650924695 265.9308048739067 L 147.3897496777469 266.09278101443175 L 147.3871655501702 267.3898312383722 L 147.60647347032486 267.545327397882 L 148.70212635205223 266.9978438350198 L 150.50081554247947 265.9267238987783 L 150.72204482620492 266.0633095032446 L 150.77767980080907 267.30305314970417 L 151.00742855305955 267.432489576961 L 152.09638492703897 266.8124669673476 L 153.8762588788437 265.6274453681315 L 154.1066495356781 265.73766187239386 L 154.21524334376284 266.91704670350487 L 154.45329865089178 267.0199358182098 L 155.5304074612532 266.3276683481351 L 157.28293992096764 265.0305089326678 L 157.51983378894485 265.1147482766919 L 157.5982080671962 265.8956880098011 L 157.9168247025794 266.3124734155962 L 158.97522890898406 265.5514799979947 L 160.24952253868378 264.41178807662016 L 160.92930757633474 264.20949830209094 L 161.0322145733528 264.95596186115995 L 161.3625155709976 265.33241822127434 L 162.39390084180138 264.5101130895487 L 163.6277824001937 263.3043498875387 L 164.29545789734277 263.0561973849818 L 164.50633969809687 264.0850041643577 L 164.74842452700784 264.1223777413916 L 165.7435277026313 263.2504376773399 L 166.9274184922487 261.9915120861889 L 167.57387866495708 261.7103114744697 L 167.79433855812698 262.71928110993355 L 168.02913075154885 262.7463638571417 L 168.9784555898465 261.8407211508462 L 170.10271708838627 260.54575356855537 L 170.7189322198123 260.2484470755832 L 170.8457000703339 260.95889556176525 L 171.15961205478396 261.28894413940316 L 172.05427550324941 260.3693674841003 L 173.11007114114778 259.0591867094909 L 173.68796032835667 258.7662587300115 L 173.80689714899893 259.50018178654165 L 174.09958919300354 259.85231795451136 L 174.9322053453389 258.9415817647298 L 175.91238030365602 257.6398152083709 L 176.44568243387917 257.37430669537207 L 176.55143297727224 258.15409676829773 L 176.817860911442 258.5513996823641 L 177.58336354308028 257.67408220446987 L 178.79450018172247 256.1187269048185 L 178.96828774279462 256.1920662201037 L 179.05818897733755 257.04102920925976 L 179.29613840781954 257.5071878609473 L 179.99244718385143 256.68817610770344 L 181.09166506144504 255.22672706112698 L 181.24674863635357 255.3404773826748 L 181.3213614732203 256.28121431619877 L 181.5319293543783 256.8388769894194 L 182.16037903529212 256.10168829676513 L 183.15093167380763 254.76875254886025 L 183.28895376608094 254.93358265531577 L 183.35231992167513 255.98626546634105 L 183.5401107152091 256.65531052772593 L 184.10558550396073 256.0203632184106 L 184.9960328429527 254.84526680358695 L 185.12037281507628 255.06991230546402 L 185.17995583147908 256.25059441670174 L 185.35295729976332 257.0464649025992 L 185.86370156210702 256.5294417692816 L 186.66750370152906 255.53384376675217 L 186.78310975511826 255.82433361910608 L 186.84941066470748 257.1434396796631 L 187.01854634813185 258.07568518778703 L 187.4856553477599 257.6861319437669 L 188.22029548408995 256.88204157012984 L 188.3333628158157 257.24107207767827 L 188.41923376990812 258.70220180654536 L 188.59762190492822 259.7733592356298 L 189.03424864149312 259.5136455752313 L 189.53694056528917 258.858273931384 L 189.83747095200275 259.3285403034111 L 189.957181009682 260.92769955807313 L 190.15915974131593 262.1326200889416 L 190.3464047524104 262.21477820967215 L 191.0555117553035 261.46242526570694 L 191.36687197179796 262.05647910711593 L 191.53500503251058 263.7818187701677 L 191.77500820872396 265.10751412257423 L 191.9656312751243 265.24638787595694 L 192.65638208645183 264.65475415696517 L 192.99241191502148 265.3557352327402 L 193.22269485547122 267.18783807090233 L 193.51407897532056 268.6138774556054 L 193.7145624477203 268.7992518826246 L 194.40571663692364 268.33668129927094 L 194.7785170957862 269.12078793205546 L 195.0826846889593 271.0334987754346 L 195.43661404186724 272.5329427514063 L 195.65228273522808 272.751441761079 L 196.35885846391665 272.3771910548846 L 196.77776205683566 273.21491007002413 L 197.16456331666924 275.1766594713681 L 197.58905631019644 276.7174721450443 L 197.82361681734974 276.95329621865255 L 198.5555784162391 276.6198692046056 L 199.02633614393707 277.47762928460304 L 199.50077450727443 279.45315930658415 L 199.99999999999997 281 L 200.25521077260095 281.2358447232185 L 201.01657024563826 280.8918315524193 L 201.5408313546099 281.7339606274597 L 202.10370976697436 283.68632732123865 L 202.6775992808532 285.20259063420406 L 202.95310238497174 285.42067854391587 L 203.74151907783434 285.01389023428595 L 204.31665235812343 285.8047316604691 L 204.9644659672799 287.6974352328954 L 205.60867820561597 289.14738725397365 L 205.90200856448303 289.33053582428914 L 206.70892464864727 288.81119911683663 L 207.32819810514872 289.5172278391858 L 208.05338468390568 291.3163106021402 L 208.75962573291991 292.6671608100935 L 209.0663970117588 292.7998063143841 L 209.87769612786587 292.12357875687627 L 210.53079819963614 292.71535865420833 L 211.3223228362902 294.3913136007716 L 212.07899204614125 295.6150674903711 L 212.39324175993553 295.68416824422786 L 213.19036910769262 294.81474875302524 L 213.50004757790234 294.85627839182484 L 213.86422262274783 295.2685859163628 L 214.7084419534377 296.7979349240791 L 215.5015430778333 297.87289108747063 L 215.81620465030323 297.8686438582145 L 216.57764385405721 296.7797884646497 L 216.88474875157942 296.74524811640106 L 217.25743674309632 297.0789610359096 L 218.13916214271407 298.4453897867817 L 218.95339486781558 299.35717538241767 L 219.50676880780568 298.87862827020814 L 219.9638221617559 297.95029752499516 L 220.26068815041887 297.83516250810914 L 220.63415929082942 298.0857785659709 L 221.5378205350771 299.280752743631 L 222.35775145437182 300.02283024629 L 222.87133936955797 299.3831506965213 L 223.27264010036149 298.29692167286294 L 223.55187119076217 298.1006036560807 L 223.9187103473263 298.26755409675343 L 224.82951305964832 299.29038487915636 L 225.64071902046985 299.8640072002389 L 226.10072890863103 299.0672834118967 L 226.43296339860603 297.8291296041123 L 226.68797473748165 297.5548053127451 L 227.04161627584404 297.6412576415141 L 227.94658876017766 298.4986300345214 L 228.73666989356425 298.91226655193884 L 229.13155350852622 297.9696198210089 L 229.38383404872084 296.5923529772282 L 229.60930306051165 296.24654378927585 L 229.94447070778128 296.2589588914152 L 230.83330827295907 296.9639799696241 L 231.59268244311977 297.2322786503954 L 231.9138769932141 296.16074255844364 L 232.07842853636694 294.6628141683153 L 232.27061713675275 294.2547596336251 L 232.58363178514722 294.20224805387585 L 233.86281745534365 294.99289852642625 L 234.17168148755684 294.9154967096372 L 234.41405772576428 293.73655744578036 L 234.48660252910327 292.1405461106886 L 234.64352549884515 291.68142996630047 L 234.93245752765603 291.5749671898124 L 236.1695989023067 292.19918987084185 L 236.4540384463599 292.07239103153256 L 236.6160253948722 290.8103203927102 L 236.5958422325964 289.14124003526507 L 236.71727253108068 288.64333731788395 L 236.98193106301662 288.4949073172445 L 238.17707123611092 288.9879799071006 L 238.43754747583796 288.82393140629364 L 238.52093673474212 287.5040559853882 L 238.41060419377794 285.78762924488416 L 238.49792241412803 285.2634468231598 L 238.73969032591816 285.0851862061759 L 239.89741359045033 285.4823628418281 L 240.1358572883256 285.29303836009205 L 240.1453218801698 283.94008738644237 L 239.9501867165019 282.20112490834185 L 240.00609737380128 281.66260497332905 L 240.22763618799075 281.4660166438559 L 241.35611765126455 281.80023469909287 L 241.57559170935542 281.59669306137386 L 241.5179824653619 280.2333536957549 L 241.24542090311743 278.49436398908153 L 241.27357123420268 277.95221115680704 L 241.47843267782014 277.74750695105604 L 242.58823363120644 278.04751147837896 L 242.7925197314857 277.8393044257143 L 242.67602348643413 276.4850885893815 L 242.3345829592579 274.76521647062896 L 242.33912907936326 274.2283951324563 L 242.53131882138393 274.0240124336463 L 243.63406791152676 274.31302311222265 L 243.82722492255772 274.10779015336453 L 243.66048109542749 272.77828374961103 L 243.25900026734627 271.09264084948484 L 243.24416994446364 270.56807168235713 L 243.42771293118443 270.37039101474807 L 244.5348218133886 270.66538097373655 L 244.72076548917678 270.46865051573036 L 244.5120397333456 269.1751774924212 L 244.02854516467238 267.027054163519 L 244.20710066222537 266.84032499495413 L 245.3286557556167 267.15192120549693 L 245.510805862937 266.96711721426925 L 245.26731115718525 265.7168110511211 L 244.7270887016817 263.6402099850222 L 244.9036567607175 263.4666723293982 L 246.0476066866025 263.7996291259733 L 246.2286394244402 263.6282635117804 L 245.95607709119753 262.4245011937884 L 245.36721114396914 260.42345214218204 L 245.5439613758423 260.26362390275267 L 246.71568489728892 260.61777006672827 L 246.89741616210702 260.45978460697984 L 246.59978367227168 259.30290646172887 L 245.96780479351088 257.3771994855494 L 246.14604419989286 257.23028544186917 L 246.97010966144603 257.5090256559654 L 247.53174952664426 257.4560152293932 L 247.21143121493097 256.344231026097 L 246.53955607890526 254.4908190420564 L 246.71983666523755 254.35518820243834 L 247.56568524239646 254.64097180815958 L 248.13871786227907 254.6026572933797 L 247.79684201077166 253.53302669294163 L 247.08659909267493 251.74749673540532 L 247.2689497808376 251.62117120313968 L 248.13605759344 251.9094730329681 L 248.7201140464436 251.88165190775106 L 248.35712860067144 250.85102660958012 L 247.60928725224375 249.1289732866159 L 247.79353988668032 249.01007401220687 L 248.6810811736927 249.29670184162916 L 249.27564927611036 249.27564927611036 L 248.892042025843 248.2814747780498 L 248.10772543853346 246.6196292377878 L 248.29389301600287 246.50673167163697 L 249.2015043652961 246.7885042362327 L 249.80669897313945 246.77160354421386 L 249.40376919899353 245.81249896305863 L 248.5856069068866 244.20950071839155 L 248.77426482283812 244.10186553478889 L 249.70280004466917 244.37703279611605 L 250.32010336660682 244.3631386976381 L 249.9006828236558 243.4392012811204 L 249.05384867317844 241.89594469940943 L 249.24646761281133 241.79360410115913 L 250.19864082459964 242.06197573760338 L 250.83151109975915 242.05148310421924 L 250.4005339213989 241.16429687829316 L 249.5335221464122 239.68383429614371 L 249.73270458666974 239.58753130596884 L 250.71352739189606 239.8503133610373 L 251.3677847652537 239.84493817041374 L 250.9326184797122 238.9973001782742 L 250.05763333347582 237.58433423273084 L 250.2672142403 237.4953290816198 L 251.28415159591128 237.75470174734653 L 251.96807064562168 237.75701342243116 L 251.53854295368643 236.95242273094402 L 250.67141428914124 235.61246642780532 L 250.89639973005563 235.53223895790197 L 251.9591965279901 235.79073724195482 L 252.68326378901412 235.80350909919161 L 252.27134998976638 235.0454899649807 L 251.43093480858232 233.7838096025628 L 251.6772686215403 233.71369802503216 L 252.7974325730426 233.97347866244922 L 253.57376181646848 233.9989430907647 L 253.19293289973257 233.29029178194077 L 252.40001662872038 232.11077148862537 L 252.67418340741014 232.05159474843046 L 253.86414625914438 232.31368504868436 L 254.70558087470158 232.35279034164893 L 254.36984888815726 231.69484334442387 L 253.64561470546377 230.59891839913013 L 253.95410539024567 230.5506311418653 L 255.2261202108019 230.81425734934714 L 256.14508716400996 230.86602286618304 L 255.86781885739674 230.25804182993778 L 255.23200330601014 229.24384041233532 L 255.58068579177657 229.20526599699085 L 257.9527593638069 229.5284057642862 L 257.7453578020587 228.96716189915026 L 257.1681846734478 228.2294511173301 L 257.21425106643204 228.02897238069193 L 257.6077007880768 227.99765094891652 L 260.1765243429253 228.31692292328017 L 260.2500346702026 228.1206610599188 L 259.6315734540751 226.9246878211331 L 260.0724265377645 226.89686402354423 L 262.84528715013755 227.19558423300012 L 262.961528066532 227.01136428357773 L 262.37014802467115 226.06442093181403 L 262.9895950726146 225.85960530345545 L 265.96329726337564 226.11671693922054 L 266.12133395230586 225.93929655228695 L 265.64159711259646 225.03983756205352 L 266.3465561567956 224.8323610824444 L 269.50595268576546 225.02368273890113 L 269.7018077259471 224.8471162365321 L 269.32086068702756 223.97740442843565 L 270.1001936461613 223.75488275961837 L 273.41754383115756 223.8548060397858 L 273.6440931516449 223.67289132676697 L 273.3396790591233 222.8146854754717 L 274.17601311046985 222.56468128639156 L 277.61128810775233 222.5481635808605 L 277.8583982634085 222.3549517284728 L 277.80945388396725 222.07653861365515 L 277.59941623152986 221.49105498688655 L 278.4696415437867 221.2021222229239 L 280.42457149121293 221.18903300656052 L 281.97181662462214 221.04678528926874 L 282.2267281196819 220.83710394086816 L 282.18170196101795 220.55115049245404 L 281.97452564615224 219.95292294401952 L 282.85077532951505 219.61563234601294 L 284.8141164446713 219.51852428646325 L 286.36006335241746 219.3037612239409 L 286.6080031695797 219.0737002251212 L 286.55225835460107 218.77651967608207 L 286.3183382020451 218.15866037075645 L 287.1693976981272 217.76650400830803 L 289.108391453239 217.57929717798788 L 290.62029354919736 217.28674552255077 L 290.8452793210729 217.03405566555222 L 290.7630607368805 216.7236462656207 L 290.4708277104626 216.08272863294604 L 291.2638814520291 215.63281081155975 L 293.1445403863818 215.35317705775498 L 294.58881204363024 214.98139605649314 L 294.7745923630621 214.7057593188697 L 294.6499766733484 214.38205979173088 L 294.26782494570665 213.71858413388108 L 294.9704158905793 213.21202509507097 L 296.75950971755765 212.8417279188496 L 298.10373145983334 212.3933834185647 L 298.23479336448145 212.0965248375543 L 297.55100974623156 211.08004124364868 L 297.65556510835273 210.7812747598968 L 298.13306541007626 210.5220467256801 L 299.8001427828483 210.0669412876946 L 301.0150710061799 209.54873557863542 L 301.07763799529744 209.23436177235274 L 300.2093473208753 207.88664667393397 L 300.61369393767586 207.60050194077337 L 302.1329836183755 207.07018650026836 L 303.19440882169647 206.49244189345413 L 303.177351652981 206.16600774165133 L 301.9796755062051 204.80923941470664 L 302.30098170601957 204.5023357204267 L 303.6530234771076 203.90947918106244 L 304.5433302649035 203.2854065099628 L 304.0165585903784 202.61477181802562 L 303.0264950147722 201.94223371357086 L 302.88574698018397 201.61625846847772 L 303.11782042376905 201.29588496175842 L 304.2906957524425 200.6552863904732 L 305 200.00000000000003" stroke-linecap="round" stroke-linejoin="round" stroke-miterlimit="10" stroke-width="2.5" stroke-dasharray=""/></g></g></g><g id="labels-8b1de2fc"/><g id="labels-8b1de2fc"/></g></svg>